<svg width="27" height="19" viewBox="0 0 27 19" fill="none" xmlns="http://www.w3.org/2000/svg">
<path d="M13.3418 18.3281C12.0397 18.3281 10.806 18.1686 9.64062 17.8496C8.48177 17.5371 7.4043 17.1237 6.4082 16.6094C5.41862 16.0885 4.52995 15.5156 3.74219 14.8906C2.95443 14.2656 2.2806 13.6406 1.7207 13.0156C1.16081 12.3841 0.73112 11.8014 0.431641 11.2676C0.138672 10.7272 -0.0078125 10.291 -0.0078125 9.95898C-0.0078125 9.66602 0.109375 9.29167 0.34375 8.83594C0.578125 8.3737 0.916667 7.86914 1.35938 7.32227C1.80859 6.77539 2.35221 6.22201 2.99023 5.66211C3.63477 5.0957 4.36393 4.56185 5.17773 4.06055L6.38867 5.27148C5.66602 5.70117 5.01497 6.15365 4.43555 6.62891C3.86263 7.10417 3.37109 7.56315 2.96094 8.00586C2.55729 8.44857 2.24479 8.84245 2.02344 9.1875C1.80859 9.53255 1.70117 9.78971 1.70117 9.95898C1.70117 10.1868 1.83789 10.5124 2.11133 10.9355C2.38477 11.3587 2.77539 11.8275 3.2832 12.3418C3.79753 12.8496 4.40625 13.3639 5.10938 13.8848C5.8125 14.4056 6.59701 14.8874 7.46289 15.3301C8.32878 15.7663 9.25651 16.1178 10.2461 16.3848C11.2357 16.6517 12.2676 16.7852 13.3418 16.7852C13.9993 16.7852 14.6374 16.7331 15.2559 16.6289C15.8743 16.5247 16.4733 16.3848 17.0527 16.209L18.332 17.4883C17.5768 17.7487 16.7826 17.9538 15.9492 18.1035C15.1159 18.2533 14.2467 18.3281 13.3418 18.3281ZM13.3418 1.58984C14.6569 1.58984 15.8971 1.74935 17.0625 2.06836C18.2344 2.38086 19.3151 2.79753 20.3047 3.31836C21.2943 3.83268 22.1797 4.40234 22.9609 5.02734C23.7487 5.65234 24.4193 6.2806 24.9727 6.91211C25.526 7.53711 25.9492 8.11979 26.2422 8.66016C26.5352 9.19401 26.6816 9.62695 26.6816 9.95898C26.6816 10.2454 26.5677 10.6133 26.3398 11.0625C26.1185 11.5117 25.7962 12.0033 25.373 12.5371C24.9499 13.0645 24.4323 13.6048 23.8203 14.1582C23.2148 14.7116 22.528 15.2389 21.7598 15.7402L20.5586 14.5391C21.2357 14.1224 21.8444 13.6895 22.3848 13.2402C22.9251 12.791 23.3874 12.3548 23.7715 11.9316C24.1621 11.502 24.4583 11.1178 24.6602 10.7793C24.8685 10.4342 24.9727 10.1608 24.9727 9.95898C24.9727 9.76367 24.8327 9.46419 24.5527 9.06055C24.2793 8.6569 23.8887 8.19792 23.3809 7.68359C22.873 7.16276 22.2676 6.63867 21.5645 6.11133C20.8613 5.58398 20.0768 5.0957 19.2109 4.64648C18.3451 4.19076 17.4173 3.82617 16.4277 3.55273C15.4382 3.27279 14.4095 3.13281 13.3418 3.13281C12.7363 3.13281 12.1536 3.17839 11.5938 3.26953C11.0404 3.36068 10.4935 3.48438 9.95312 3.64062L8.66406 2.36133C9.38672 2.12044 10.1322 1.93164 10.9004 1.79492C11.6751 1.6582 12.4889 1.58984 13.3418 1.58984ZM13.3418 15.4277C12.5736 15.4277 11.8574 15.2845 11.1934 14.998C10.5293 14.7116 9.94661 14.3177 9.44531 13.8164C8.94401 13.3086 8.55339 12.7259 8.27344 12.0684C7.99349 11.4043 7.85026 10.7012 7.84375 9.95898C7.84375 9.52279 7.89258 9.10286 7.99023 8.69922C8.08789 8.28906 8.22786 7.90169 8.41016 7.53711L15.7344 14.8613C15.3698 15.0371 14.9857 15.1771 14.582 15.2812C14.1849 15.3789 13.7715 15.4277 13.3418 15.4277ZM18.3516 12.0977L11.1934 4.93945C11.5189 4.79622 11.8607 4.68555 12.2188 4.60742C12.5833 4.5293 12.9577 4.49023 13.3418 4.49023C14.097 4.49023 14.8066 4.63021 15.4707 4.91016C16.1348 5.1901 16.7174 5.58073 17.2188 6.08203C17.7201 6.57682 18.1107 7.15625 18.3906 7.82031C18.6771 8.48438 18.8203 9.19727 18.8203 9.95898C18.8203 10.3366 18.778 10.7077 18.6934 11.0723C18.6152 11.4303 18.5013 11.7721 18.3516 12.0977ZM20.9395 18.416L4.60156 2.09766C4.45833 1.95443 4.38672 1.77865 4.38672 1.57031C4.38672 1.35547 4.45833 1.17643 4.60156 1.0332C4.7513 0.883464 4.93034 0.811849 5.13867 0.818359C5.35352 0.818359 5.53255 0.889974 5.67578 1.0332L22.0039 17.3516C22.1536 17.5013 22.2318 17.6738 22.2383 17.8691C22.2448 18.071 22.1667 18.2533 22.0039 18.416C21.8542 18.5788 21.6751 18.6569 21.4668 18.6504C21.265 18.6439 21.0892 18.5658 20.9395 18.416Z" fill="black" fill-opacity="0.2"/>
</svg>
