<svg width="27" height="18" viewBox="0 0 27 18" fill="none" xmlns="http://www.w3.org/2000/svg">
<path d="M26.083 8.66631C23.3682 3.80958 18.6074 0.870605 13.3391 0.870605C8.07074 0.870605 3.30185 3.80958 0.611298 8.66631L0.385742 9.0327L0.595187 9.4069C3.30991 14.2636 8.07074 17.2026 13.3391 17.2026C18.6074 17.2026 23.3763 14.3026 26.083 9.4069L26.2924 9.0327L26.083 8.66631ZM13.3391 15.6045C8.8038 15.6045 4.63908 13.1566 2.22241 9.0327C4.63908 4.90878 8.8038 2.46093 13.3391 2.46093C17.8744 2.46093 21.9907 4.91657 24.4477 9.0327C21.9907 13.1566 17.8663 15.6045 13.3391 15.6045Z" fill="black"/>
<path d="M13.5725 14.4037C16.6245 14.4037 19.0986 12.0094 19.0986 9.05586C19.0986 6.10232 16.6245 3.70801 13.5725 3.70801C10.5205 3.70801 8.04639 6.10232 8.04639 9.05586C8.04639 12.0094 10.5205 14.4037 13.5725 14.4037Z" fill="black"/>
</svg>
